<?xml version="1.0" encoding="UTF-8" standalone="no"?>
<!-- Created with Inkscape (http://www.inkscape.org/) -->

<svg
   width="1023.9999"
   height="1023.9999"
   viewBox="0 0 270.93331 270.93331"
   version="1.1"
   id="svg1"
   xml:space="preserve"
   inkscape:export-filename="favicon.svg"
   inkscape:export-xdpi="300"
   inkscape:export-ydpi="300"
   sodipodi:docname="favicon.svg"
   inkscape:version="1.4.3 (0d15f75, 2025-12-25)"
   xmlns:inkscape="http://www.inkscape.org/namespaces/inkscape"
   xmlns:sodipodi="http://sodipodi.sourceforge.net/DTD/sodipodi-0.dtd"
   xmlns="http://www.w3.org/2000/svg"
   xmlns:svg="http://www.w3.org/2000/svg"><sodipodi:namedview
     id="namedview1"
     pagecolor="#ffffff"
     bordercolor="#666666"
     borderopacity="1.0"
     inkscape:showpageshadow="2"
     inkscape:pageopacity="0.0"
     inkscape:pagecheckerboard="0"
     inkscape:deskcolor="#d1d1d1"
     inkscape:document-units="mm"
     inkscape:zoom="0.13931524"
     inkscape:cx="-509.63556"
     inkscape:cy="800.34317"
     inkscape:window-width="1920"
     inkscape:window-height="1009"
     inkscape:window-x="-8"
     inkscape:window-y="-8"
     inkscape:window-maximized="1"
     inkscape:current-layer="layer1"><inkscape:page
       x="0"
       y="0"
       width="270.93332"
       height="270.93332"
       id="page2"
       margin="0"
       bleed="0" /></sodipodi:namedview><defs
     id="defs1" /><g
     inkscape:label="Lager 1"
     inkscape:groupmode="layer"
     id="layer1"><rect
       style="fill:#05142c;fill-opacity:1;stroke-width:1;stroke-dasharray:1, 3"
       id="rect1"
       width="270.93332"
       height="270.93332"
       x="0"
       y="0"
       ry="55.889023"
       rx="55.889023" /><path
       style="fill:#ffffff;stroke:#ffffff;stroke-width:0.264583px;stroke-linecap:butt;stroke-linejoin:miter;stroke-opacity:1"
       d="m 149.02754,255.57297 c -2.95438,-8.4138 -9.24694,-15.9235 -2.13657,-27.06317 56.7463,-2.4626 70.76127,-14.42105 42.04491,-35.87535 42.57551,-4.98342 88.05534,-38.69773 24.90081,-54.09783 C 257.74248,113.88379 256.7488,87.073862 204.81565,87.259028 224.59867,54.498344 214.94455,38.830191 175.8533,40.254569 165.34964,-0.9131421 112.02436,-1.9745222 97.512554,39.779777 55.256013,39.14672 44.968833,54.973137 66.651023,87.259028 16.672513,84.295841 9.3903426,122.5591 60.953513,138.06182 c -50.28799,6.48863 -47.857,45.54587 18.04213,55.07593 -32.71981,24.61635 18.308301,38.68027 45.580077,35.13465 1.69732,2.23652 3.68752,5.21639 3.95482,8.47937 0.56187,6.85893 -1.61127,15.54272 4.11664,25.2309 z"
       id="path2"
       sodipodi:nodetypes="cccccccccccscc" /><circle
       style="fill:#05142c;fill-opacity:1;stroke:none;stroke-width:1"
       id="path3"
       cx="135.46664"
       cy="135.46667"
       r="60.16264" /><rect
       style="fill:#05142c;fill-opacity:1;stroke:none;stroke-width:1"
       id="rect4"
       width="46.398109"
       height="25.783987"
       x="112.26759"
       y="45.710037"
       rx="6.5752935"
       ry="17.554886" /><rect
       style="fill:#05142c;fill-opacity:1;stroke:none;stroke-width:1"
       id="rect5"
       width="37.118488"
       height="20.62719"
       x="170.86148"
       y="-70.547432"
       rx="6.5752935"
       ry="17.554886"
       inkscape:transform-center-x="-47.549864"
       inkscape:transform-center-y="-57.921253"
       transform="rotate(40)" /><rect
       style="fill:#05142c;fill-opacity:1;stroke:none;stroke-width:1"
       id="rect6"
       width="37.118488"
       height="20.62719"
       x="-0.81003737"
       y="104.64097"
       rx="6.5752935"
       ry="17.554886"
       inkscape:transform-center-x="48.784349"
       inkscape:transform-center-y="-56.885414"
       transform="rotate(-40)" /></g></svg>
